<?xml version="1.0" encoding="utf-8"?>
<!-- Generator: Adobe Illustrator 16.0.0, SVG Export Plug-In . SVG Version: 6.00 Build 0)  -->
<!DOCTYPE svg PUBLIC "-//W3C//DTD SVG 1.1//EN" "http://www.w3.org/Graphics/SVG/1.1/DTD/svg11.dtd">
<svg version="1.1" id="Capa_1" xmlns="http://www.w3.org/2000/svg" xmlns:xlink="http://www.w3.org/1999/xlink" x="0px" y="0px"
	 width="33.26px" height="33.26px" viewBox="0 0 33.26 33.26" enable-background="new 0 0 33.26 33.26" xml:space="preserve">
<g>
	<defs>
		<rect id="SVGID_1_" width="33.26" height="33.26"/>
	</defs>
	<clipPath id="SVGID_2_">
		<use xlink:href="#SVGID_1_"  overflow="visible"/>
	</clipPath>
	<path clip-path="url(#SVGID_2_)" fill="#949494" d="M17.377,15.147c0.548-0.001,1.095-0.001,1.643,0.001
		c0.052,0,0.069-0.011,0.075-0.067c0.036-0.342,0.076-0.682,0.116-1.023c0.038-0.327,0.077-0.654,0.115-0.981
		c0.005-0.04,0.008-0.079,0.014-0.118c0.006-0.044-0.005-0.069-0.056-0.064c-0.018,0.002-0.035,0.001-0.053,0.001h-1.874
		c-0.089-0.001-0.089-0.001-0.089-0.088c0.003-0.421,0.004-0.842,0.009-1.263c0.001-0.082,0.012-0.166,0.028-0.246
		c0.055-0.269,0.234-0.408,0.492-0.454c0.119-0.022,0.242-0.034,0.364-0.036c0.354-0.005,0.708-0.002,1.062-0.002h0.08
		c0.001-0.03,0.003-0.053,0.003-0.076V8.638c0-0.077,0-0.077-0.075-0.077c-0.638,0-1.274-0.005-1.91,0.002
		c-0.438,0.006-0.869,0.069-1.281,0.229c-0.651,0.253-1.071,0.721-1.282,1.382c-0.099,0.308-0.159,0.625-0.166,0.947
		c-0.012,0.56-0.01,1.119-0.015,1.678c0,0.093,0.023,0.098-0.094,0.098c-0.401,0-0.803,0-1.204-0.002
		c-0.057,0-0.078,0.011-0.078,0.075c0.003,0.702,0.002,1.404,0.001,2.105c0,0.056,0.013,0.074,0.071,0.074
		c0.412-0.002,0.823,0,1.234-0.003c0.058,0,0.072,0.017,0.072,0.074c-0.002,1.905-0.001,7.547-0.001,9.452l2.69,0.028v-9.445
		C17.269,15.123,17.265,15.147,17.377,15.147"/>
	<path clip-path="url(#SVGID_2_)" fill="#949494" d="M16.63,2c8.067,0,14.63,6.563,14.63,14.63c0,8.066-6.562,14.63-14.63,14.63
		C8.563,31.26,2,24.696,2,16.63C2,8.563,8.563,2,16.63,2 M16.63,0C7.445,0,0,7.445,0,16.63c0,9.184,7.445,16.63,16.63,16.63
		c9.186,0,16.63-7.446,16.63-16.63C33.26,7.445,25.815,0,16.63,0"/>
</g>
</svg>
