<?xml version="1.0" encoding="utf-8"?>
<!-- Generator: Adobe Illustrator 16.0.0, SVG Export Plug-In . SVG Version: 6.00 Build 0)  -->
<!DOCTYPE svg PUBLIC "-//W3C//DTD SVG 1.1//EN" "http://www.w3.org/Graphics/SVG/1.1/DTD/svg11.dtd">
<svg version="1.1" id="Capa_1" xmlns="http://www.w3.org/2000/svg" xmlns:xlink="http://www.w3.org/1999/xlink" x="0px" y="0px"
	 width="33.26px" height="33.26px" viewBox="0 0 33.26 33.26" enable-background="new 0 0 33.26 33.26" xml:space="preserve">
<g>
	<defs>
		<rect id="SVGID_1_" width="33.26" height="33.26"/>
	</defs>
	<clipPath id="SVGID_2_">
		<use xlink:href="#SVGID_1_"  overflow="visible"/>
	</clipPath>
	<path clip-path="url(#SVGID_2_)" fill="#949494" d="M22.647,8.283c-3.993-0.003-7.986-0.003-11.979,0
		c-1.492,0-2.378,0.862-2.381,2.35c-0.009,4.015-0.009,8.029,0,12.044c0.003,1.432,0.892,2.298,2.322,2.3
		c2.001,0.002,4.004,0,6.006,0c2.023,0,4.047,0.003,6.071,0c1.41-0.002,2.289-0.875,2.29-2.29c0.005-4.026,0.005-8.052,0.001-12.077
		C24.976,9.161,24.094,8.283,22.647,8.283 M19.703,10.897c0.015-0.456,0.314-0.729,0.777-0.744c0.303-0.009,0.605-0.002,0.909-0.001
		c0.313,0,0.628-0.009,0.941,0.002c0.448,0.016,0.733,0.288,0.744,0.735c0.014,0.605,0.014,1.212-0.001,1.817
		c-0.01,0.417-0.27,0.707-0.687,0.724c-0.659,0.028-1.32,0.028-1.979,0.001c-0.425-0.017-0.694-0.318-0.705-0.748
		C19.688,12.088,19.687,11.492,19.703,10.897 M16.702,13.349c1.823,0.017,3.32,1.501,3.305,3.276
		c-0.016,1.808-1.532,3.236-3.42,3.216c-1.819-0.018-3.292-1.479-3.277-3.25C13.326,14.767,14.828,13.332,16.702,13.349
		 M23.089,22.149c0,0.718-0.204,0.921-0.934,0.921c-1.85,0.002-3.7,0.001-5.55,0.001c-1.84,0-3.68,0.001-5.519,0
		c-0.735-0.001-0.944-0.213-0.944-0.95c-0.001-2.109-0.001-4.22,0-6.33c0-0.436,0.003-0.436,0.428-0.44
		c0.216-0.001,0.432-0.001,0.649,0c0.428,0.004,0.434,0.007,0.349,0.415c-0.128,0.622-0.144,1.245-0.028,1.871
		c0.409,2.194,2.16,3.821,4.441,4.131c2.393,0.322,4.738-1.067,5.56-3.305c0.325-0.885,0.385-1.792,0.19-2.715
		c-0.083-0.393-0.082-0.394,0.331-0.397c0.238-0.001,0.476,0.009,0.714,0c0.222-0.009,0.316,0.087,0.312,0.306
		c-0.005,0.314,0.001,0.628,0.001,0.941C23.09,18.449,23.091,20.299,23.089,22.149"/>
	<path clip-path="url(#SVGID_2_)" fill="#949494" d="M16.63,2c8.067,0,14.63,6.563,14.63,14.63c0,8.066-6.562,14.63-14.63,14.63
		C8.563,31.26,2,24.696,2,16.63C2,8.563,8.563,2,16.63,2 M16.63,0C7.445,0,0,7.445,0,16.63c0,9.184,7.445,16.63,16.63,16.63
		c9.186,0,16.63-7.446,16.63-16.63C33.26,7.445,25.815,0,16.63,0"/>
</g>
</svg>
