<?xml version="1.0" encoding="utf-8"?>
<!-- Generator: Adobe Illustrator 16.0.0, SVG Export Plug-In . SVG Version: 6.00 Build 0)  -->
<!DOCTYPE svg PUBLIC "-//W3C//DTD SVG 1.1//EN" "http://www.w3.org/Graphics/SVG/1.1/DTD/svg11.dtd">
<svg version="1.1" id="Capa_1" xmlns="http://www.w3.org/2000/svg" xmlns:xlink="http://www.w3.org/1999/xlink" x="0px" y="0px"
	 width="33.26px" height="33.26px" viewBox="0 0 33.26 33.26" enable-background="new 0 0 33.26 33.26" xml:space="preserve">
<g>
	<defs>
		<rect id="SVGID_1_" width="33.26" height="33.26"/>
	</defs>
	<clipPath id="SVGID_2_">
		<use xlink:href="#SVGID_1_"  overflow="visible"/>
	</clipPath>
	<path clip-path="url(#SVGID_2_)" fill="#949494" d="M9.091,21.496c0,0.028,0,0.056,0,0.083c0.069,0.051,0.133,0.107,0.207,0.147
		c1.891,1.038,3.9,1.377,6.033,1.046c4.285-0.665,7.18-4.52,7.395-8.733c0.013-0.27,0.15-0.567,0.314-0.789
		c0.241-0.327,0.562-0.594,0.84-0.895c0.109-0.118,0.193-0.259,0.289-0.39c-0.016-0.019-0.032-0.039-0.048-0.059
		c-0.422,0.12-0.844,0.241-1.266,0.361c-0.012-0.028-0.023-0.056-0.035-0.084c0.343-0.488,0.686-0.976,1.028-1.464
		c-0.029-0.027-0.06-0.053-0.09-0.08c-0.288,0.121-0.581,0.231-0.863,0.364c-0.609,0.287-1.195,0.402-1.723-0.162
		c-0.029-0.032-0.077-0.048-0.116-0.07c-1.895-1.092-4.363,0.128-4.634,2.3c-0.047,0.377-0.007,0.764-0.007,1.158
		c-2.642-0.184-4.721-1.394-6.449-3.34c-0.687,1.589-0.457,2.966,0.788,4.17c-0.034,0.023-0.067,0.047-0.101,0.071
		c-0.369-0.101-0.739-0.203-1.23-0.338c0.164,0.536,0.258,0.992,0.439,1.409c0.371,0.855,1.109,1.341,1.928,1.724
		c-0.008,0.033-0.016,0.066-0.023,0.1h-1.105c0.475,1.376,1.572,1.86,2.745,2.254C12.109,21.261,10.633,21.491,9.091,21.496"/>
	<path clip-path="url(#SVGID_2_)" fill="#949494" d="M16.63,2c8.067,0,14.63,6.563,14.63,14.63c0,8.066-6.562,14.63-14.63,14.63
		C8.563,31.26,2,24.696,2,16.63C2,8.563,8.563,2,16.63,2 M16.63,0C7.445,0,0,7.445,0,16.63c0,9.184,7.445,16.63,16.63,16.63
		c9.186,0,16.63-7.446,16.63-16.63C33.26,7.445,25.815,0,16.63,0"/>
</g>
</svg>
